# xmcd
#
# Track frame offsets: 
#        150
#        33637
#        61120
#        83035
#        103767
#        183835
#        218780
#        246259
#        276137
#        333427
#
# Disc length: 4599 seconds
#
# Revision: 0
# Processed by: cddbd v1.5.2PL0 Copyright (c) Steve Scherf et al.
# Submitted via: ExactAudioCopy v0.95b4
#
DISCID=8911f50a
DTITLE=John Mayall and Friends - Beano Boy PLays Blues Again [CD2]
DYEAR=2003
DGENRE=Blues
TTITLE0=No Big Hurry
TTITLE1=Please Mr. Lofton
TTITLE2=Hideaway
TTITLE3=All Your Love
TTITLE4=Have You Heard
TTITLE5=Hoochie Coochie Man
TTITLE6=I'm Tore Down
TTITLE7=It Ain't Right
TTITLE8=California
TTITLE9=Band Introduction
EXTD=
EXTT0=
EXTT1=
EXTT2=
EXTT3=
EXTT4=
EXTT5=
EXTT6=
EXTT7=
EXTT8=
EXTT9=
PLAYORDER=
